<?xml version="1.0" encoding="UTF-8" standalone="no"?>
<!DOCTYPE svg PUBLIC "-//W3C//DTD SVG 1.1//EN"
 "http://www.w3.org/Graphics/SVG/1.1/DTD/svg11.dtd">
<!-- Generated by graphviz version 2.43.0 (0)
 -->
<!-- Title: G Pages: 1 -->
<svg width="3538pt" height="1773pt"
 viewBox="0.00 0.00 3538.00 1773.00" xmlns="http://www.w3.org/2000/svg" xmlns:xlink="http://www.w3.org/1999/xlink">
<g id="graph0" class="graph" transform="scale(1 1) rotate(0) translate(4 1769)">
<title>G</title>
<polygon fill="white" stroke="transparent" points="-4,4 -4,-1769 3534,-1769 3534,4 -4,4"/>
<g id="clust1" class="cluster">
<title>cluster_1046</title>
<polygon fill="none" stroke="#80d000" stroke-width="2" points="2984,-1013.74 2984,-1728.79 3280,-1728.79 3280,-1013.74 2984,-1013.74"/>
<text text-anchor="middle" x="3132" y="-1713.59" font-family="Times,serif" font-size="14.00">S 1046</text>
</g>
<g id="clust2" class="cluster">
<title>cluster_1050</title>
<polygon fill="none" stroke="#00d040" stroke-width="2" points="3288,-1389.37 3288,-1728.79 3522,-1728.79 3522,-1389.37 3288,-1389.37"/>
<text text-anchor="middle" x="3405" y="-1713.59" font-family="Times,serif" font-size="14.00">S 1050</text>
</g>
<g id="clust3" class="cluster">
<title>cluster_1053</title>
<polygon fill="none" stroke="#8050c0" stroke-width="2" points="8,-1013.74 8,-1353.17 230,-1353.17 230,-1013.74 8,-1013.74"/>
<text text-anchor="middle" x="119" y="-1337.97" font-family="Times,serif" font-size="14.00">S 1053</text>
</g>
<g id="clust4" class="cluster">
<title>cluster_1056</title>
<polygon fill="none" stroke="#401000" stroke-width="2" points="238,-1013.74 238,-1353.17 476,-1353.17 476,-1013.74 238,-1013.74"/>
<text text-anchor="middle" x="357" y="-1337.97" font-family="Times,serif" font-size="14.00">S 1056</text>
</g>
<g id="clust5" class="cluster">
<title>cluster_1069</title>
<polygon fill="none" stroke="#c010c0" stroke-width="2" points="484,-36.21 484,-1353.17 2836,-1353.17 2836,-36.21 484,-36.21"/>
<text text-anchor="middle" x="1660" y="-1337.97" font-family="Times,serif" font-size="14.00">S 1069</text>
</g>
<g id="clust6" class="cluster">
<title>cluster_5457</title>
<polygon fill="none" stroke="#2050a8" stroke-width="2" points="889,-1389.37 889,-1728.79 1001,-1728.79 1001,-1389.37 889,-1389.37"/>
<text text-anchor="middle" x="945" y="-1713.59" font-family="Times,serif" font-size="14.00">S 5457</text>
</g>
<g id="clust7" class="cluster">
<title>cluster_5462</title>
<polygon fill="none" stroke="#a0d028" stroke-width="2" points="2844,-1013.74 2844,-1353.17 2976,-1353.17 2976,-1013.74 2844,-1013.74"/>
<text text-anchor="middle" x="2910" y="-1337.97" font-family="Times,serif" font-size="14.00">S 5462</text>
</g>
<!-- UV DebuggerEOhook (1024) -->
<g id="node1" class="node">
<title>UV DebuggerEOhook (1024)</title>
<ellipse fill="none" stroke="#c010c0" stroke-width="2" cx="585" cy="-805.21" rx="92.88" ry="18"/>
<text text-anchor="middle" x="585" y="-801.51" font-family="Times,serif" font-size="14.00">DebuggerEOhook</text>
</g>
<!-- UV CallBackGetProgramByte (1033) -->
<g id="node2" class="node">
<title>UV CallBackGetProgramByte (1033)</title>
<ellipse fill="none" stroke="#c010c0" stroke-width="2" cx="1402" cy="-480.21" rx="129.98" ry="18"/>
<text text-anchor="middle" x="1402" y="-476.51" font-family="Times,serif" font-size="14.00">CallBackGetProgramByte</text>
</g>
<!-- UV CallBackConsoleOut (1038) -->
<g id="node3" class="node">
<title>UV CallBackConsoleOut (1038)</title>
<ellipse fill="none" stroke="#c010c0" stroke-width="2" cx="2493" cy="-480.21" rx="104.78" ry="18"/>
<text text-anchor="middle" x="2493" y="-476.51" font-family="Times,serif" font-size="14.00">CallBackConsoleOut</text>
</g>
<!-- UV printf_va_1 (9195) -->
<g id="node30" class="node">
<title>UV printf_va_1 (9195)</title>
<ellipse fill="none" stroke="#c010c0" stroke-dasharray="1,5" cx="2493" cy="-154.21" rx="62.29" ry="18"/>
<text text-anchor="middle" x="2493" y="-150.51" font-family="Times,serif" font-size="14.00">printf_va_1</text>
</g>
<!-- UV CallBackConsoleOut (1038)&#45;&gt;UV printf_va_1 (9195) -->
<g id="edge1" class="edge">
<title>UV CallBackConsoleOut (1038)&#45;&gt;UV printf_va_1 (9195)</title>
<path fill="none" stroke="#c010c0" d="M2493,-461.79C2493,-408.48 2493,-247.28 2493,-182.54"/>
<polygon fill="#c010c0" stroke="#c010c0" points="2496.5,-182.32 2493,-172.32 2489.5,-182.32 2496.5,-182.32"/>
</g>
<!-- UV CallBackErrorOut (1042) -->
<g id="node4" class="node">
<title>UV CallBackErrorOut (1042)</title>
<ellipse fill="none" stroke="#c010c0" stroke-width="2" cx="728" cy="-480.21" rx="93.68" ry="18"/>
<text text-anchor="middle" x="728" y="-476.51" font-family="Times,serif" font-size="14.00">CallBackErrorOut</text>
</g>
<!-- UV printf_va_2 (9198) -->
<g id="node31" class="node">
<title>UV printf_va_2 (9198)</title>
<ellipse fill="none" stroke="#c010c0" stroke-dasharray="1,5" cx="728" cy="-154.21" rx="62.29" ry="18"/>
<text text-anchor="middle" x="728" y="-150.51" font-family="Times,serif" font-size="14.00">printf_va_2</text>
</g>
<!-- UV CallBackErrorOut (1042)&#45;&gt;UV printf_va_2 (9198) -->
<g id="edge2" class="edge">
<title>UV CallBackErrorOut (1042)&#45;&gt;UV printf_va_2 (9198)</title>
<path fill="none" stroke="#c010c0" d="M728,-461.79C728,-408.48 728,-247.28 728,-182.54"/>
<polygon fill="#c010c0" stroke="#c010c0" points="731.5,-182.32 728,-172.32 724.5,-182.32 731.5,-182.32"/>
</g>
<!-- UV CallBackDebugOut (1046) -->
<g id="node5" class="node">
<title>UV CallBackDebugOut (1046)</title>
<polygon fill="none" stroke="#80d000" stroke-width="2" points="3132,-1525.21 2992.08,-1507.21 3132,-1489.21 3271.92,-1507.21 3132,-1525.21"/>
<text text-anchor="middle" x="3132" y="-1503.51" font-family="Times,serif" font-size="14.00">CallBackDebugOut</text>
</g>
<!-- UV printf_va_4 (9204) -->
<g id="node38" class="node">
<title>UV printf_va_4 (9204)</title>
<ellipse fill="none" stroke="#80d000" stroke-dasharray="1,5" cx="3132" cy="-1131.21" rx="62.29" ry="18"/>
<text text-anchor="middle" x="3132" y="-1127.51" font-family="Times,serif" font-size="14.00">printf_va_4</text>
</g>
<!-- UV CallBackDebugOut (1046)&#45;&gt;UV printf_va_4 (9204) -->
<g id="edge3" class="edge">
<title>UV CallBackDebugOut (1046)&#45;&gt;UV printf_va_4 (9204)</title>
<path fill="none" stroke="#80d000" d="M3132,-1489.16C3132,-1429.9 3132,-1232.45 3132,-1159.55"/>
<polygon fill="#80d000" stroke="#80d000" points="3135.5,-1159.35 3132,-1149.35 3128.5,-1159.35 3135.5,-1159.35"/>
</g>
<!-- UV CallBackReset (1050) -->
<g id="node6" class="node">
<title>UV CallBackReset (1050)</title>
<polygon fill="none" stroke="#00d040" stroke-width="2" points="3405,-1525.21 3295.74,-1507.21 3405,-1489.21 3514.26,-1507.21 3405,-1525.21"/>
<text text-anchor="middle" x="3405" y="-1503.51" font-family="Times,serif" font-size="14.00">CallBackReset</text>
</g>
<!-- UV initHardware (1053) -->
<g id="node7" class="node">
<title>UV initHardware (1053)</title>
<polygon fill="none" stroke="#8050c0" stroke-width="2" points="119,-1149.21 16.11,-1131.21 119,-1113.21 221.89,-1131.21 119,-1149.21"/>
<text text-anchor="middle" x="119" y="-1127.51" font-family="Times,serif" font-size="14.00">initHardware</text>
</g>
<!-- UV initFileSystem (1056) -->
<g id="node8" class="node">
<title>UV initFileSystem (1056)</title>
<polygon fill="none" stroke="#401000" stroke-width="2" points="357,-1149.21 245.56,-1131.21 357,-1113.21 468.44,-1131.21 357,-1149.21"/>
<text text-anchor="middle" x="357" y="-1127.51" font-family="Times,serif" font-size="14.00">initFileSystem</text>
</g>
<!-- UV StartVM (1069) -->
<g id="node9" class="node">
<title>UV StartVM (1069)</title>
<polygon fill="none" stroke="#c010c0" stroke-width="2" points="1533,-1149.21 1462.45,-1131.21 1533,-1113.21 1603.55,-1131.21 1533,-1149.21"/>
<text text-anchor="middle" x="1533" y="-1127.51" font-family="Times,serif" font-size="14.00">StartVM</text>
</g>
<!-- UV StartVM (1069)&#45;&gt;UV DebuggerEOhook (1024) -->
<g id="edge17" class="edge">
<title>UV StartVM (1069)&#45;&gt;UV DebuggerEOhook (1024)</title>
<path fill="none" stroke="#c010c0" d="M1504.37,-1120.42C1371.53,-1075.02 814.28,-884.57 638.42,-824.46"/>
<polygon fill="#c010c0" stroke="#c010c0" points="639.45,-821.12 628.86,-821.19 637.19,-827.74 639.45,-821.12"/>
</g>
<!-- UV StartVM (1069)&#45;&gt;UV CallBackErrorOut (1042) -->
<g id="edge18" class="edge">
<title>UV StartVM (1069)&#45;&gt;UV CallBackErrorOut (1042)</title>
<path fill="none" stroke="#c010c0" d="M1526.15,-1114.92C1506.14,-1070.18 1446.13,-935.61 1398,-823.21 1391.18,-807.27 1394.99,-799.72 1383,-787.21 1216.24,-613.24 931.19,-528.1 799.08,-496.4"/>
<polygon fill="#c010c0" stroke="#c010c0" points="799.61,-492.93 789.07,-494.03 798,-499.74 799.61,-492.93"/>
</g>
<!-- UV initStringFIFO (952) -->
<g id="node10" class="node">
<title>UV initStringFIFO (952)</title>
<ellipse fill="none" stroke="#c010c0" stroke-width="2" cx="993" cy="-805.21" rx="79.09" ry="18"/>
<text text-anchor="middle" x="993" y="-801.51" font-family="Times,serif" font-size="14.00">initStringFIFO</text>
</g>
<!-- UV StartVM (1069)&#45;&gt;UV initStringFIFO (952) -->
<g id="edge4" class="edge">
<title>UV StartVM (1069)&#45;&gt;UV initStringFIFO (952)</title>
<path fill="none" stroke="#c010c0" d="M1512.82,-1118.1C1432.15,-1069.7 1132.3,-889.78 1028.58,-827.55"/>
<polygon fill="#c010c0" stroke="#c010c0" points="1030.11,-824.39 1019.73,-822.24 1026.51,-830.39 1030.11,-824.39"/>
</g>
<!-- UV StringPush (960) -->
<g id="node12" class="node">
<title>UV StringPush (960)</title>
<ellipse fill="none" stroke="#c010c0" stroke-width="2" cx="1153" cy="-805.21" rx="63.09" ry="18"/>
<text text-anchor="middle" x="1153" y="-801.51" font-family="Times,serif" font-size="14.00">StringPush</text>
</g>
<!-- UV StartVM (1069)&#45;&gt;UV StringPush (960) -->
<g id="edge5" class="edge">
<title>UV StartVM (1069)&#45;&gt;UV StringPush (960)</title>
<path fill="none" stroke="#c010c0" d="M1517.63,-1117.1C1459.74,-1067.74 1254.34,-892.61 1180.06,-829.28"/>
<polygon fill="#c010c0" stroke="#c010c0" points="1181.95,-826.29 1172.07,-822.46 1177.41,-831.62 1181.95,-826.29"/>
</g>
<!-- UV initCallStack (966) -->
<g id="node13" class="node">
<title>UV initCallStack (966)</title>
<ellipse fill="none" stroke="#c010c0" stroke-width="2" cx="1304" cy="-805.21" rx="70.39" ry="18"/>
<text text-anchor="middle" x="1304" y="-801.51" font-family="Times,serif" font-size="14.00">initCallStack</text>
</g>
<!-- UV StartVM (1069)&#45;&gt;UV initCallStack (966) -->
<g id="edge6" class="edge">
<title>UV StartVM (1069)&#45;&gt;UV initCallStack (966)</title>
<path fill="none" stroke="#c010c0" d="M1522.57,-1115.44C1486.55,-1064.48 1367.17,-895.58 1321.75,-831.32"/>
<polygon fill="#c010c0" stroke="#c010c0" points="1324.48,-829.12 1315.85,-822.97 1318.76,-833.16 1324.48,-829.12"/>
</g>
<!-- UV Push (971) -->
<g id="node14" class="node">
<title>UV Push (971)</title>
<ellipse fill="none" stroke="#c010c0" stroke-width="2" cx="946" cy="-480.21" rx="33.6" ry="18"/>
<text text-anchor="middle" x="946" y="-476.51" font-family="Times,serif" font-size="14.00">Push</text>
</g>
<!-- UV StartVM (1069)&#45;&gt;UV Push (971) -->
<g id="edge7" class="edge">
<title>UV StartVM (1069)&#45;&gt;UV Push (971)</title>
<path fill="none" stroke="#c010c0" d="M1531.29,-1113.37C1525.15,-1060.17 1499.97,-892.92 1418,-787.21 1354.73,-705.61 1073.94,-550.03 978.15,-498.36"/>
<polygon fill="#c010c0" stroke="#c010c0" points="979.67,-495.21 969.21,-493.55 976.36,-501.37 979.67,-495.21"/>
</g>
<!-- UV Pop (975) -->
<g id="node15" class="node">
<title>UV Pop (975)</title>
<ellipse fill="none" stroke="#c010c0" stroke-width="2" cx="1026" cy="-480.21" rx="27.9" ry="18"/>
<text text-anchor="middle" x="1026" y="-476.51" font-family="Times,serif" font-size="14.00">Pop</text>
</g>
<!-- UV StartVM (1069)&#45;&gt;UV Pop (975) -->
<g id="edge8" class="edge">
<title>UV StartVM (1069)&#45;&gt;UV Pop (975)</title>
<path fill="none" stroke="#c010c0" d="M1554.4,-1118.66C1631,-1075.83 1882.24,-921.6 1791,-787.21 1595.46,-499.19 1383.05,-635.14 1063,-498.21 1061.15,-497.41 1059.25,-496.59 1057.34,-495.74"/>
<polygon fill="#c010c0" stroke="#c010c0" points="1058.38,-492.37 1047.83,-491.47 1055.51,-498.76 1058.38,-492.37"/>
</g>
<!-- UV Top (979) -->
<g id="node18" class="node">
<title>UV Top (979)</title>
<ellipse fill="none" stroke="#c010c0" stroke-width="2" cx="867" cy="-480.21" rx="27.1" ry="18"/>
<text text-anchor="middle" x="867" y="-476.51" font-family="Times,serif" font-size="14.00">Top</text>
</g>
<!-- UV StartVM (1069)&#45;&gt;UV Top (979) -->
<g id="edge9" class="edge">
<title>UV StartVM (1069)&#45;&gt;UV Top (979)</title>
<path fill="none" stroke="#c010c0" d="M1527.41,-1114.23C1504.92,-1050.15 1421.09,-813.98 1398,-787.21 1360.19,-743.35 1002.75,-552.83 896.59,-496.77"/>
<polygon fill="#c010c0" stroke="#c010c0" points="898.16,-493.64 887.68,-492.07 894.89,-499.83 898.16,-493.64"/>
</g>
<!-- UV ResetCallStack (983) -->
<g id="node22" class="node">
<title>UV ResetCallStack (983)</title>
<ellipse fill="none" stroke="#c010c0" stroke-width="2" cx="1533" cy="-805.21" rx="81.49" ry="18"/>
<text text-anchor="middle" x="1533" y="-801.51" font-family="Times,serif" font-size="14.00">ResetCallStack</text>
</g>
<!-- UV StartVM (1069)&#45;&gt;UV ResetCallStack (983) -->
<g id="edge10" class="edge">
<title>UV StartVM (1069)&#45;&gt;UV ResetCallStack (983)</title>
<path fill="none" stroke="#c010c0" d="M1533,-1112.79C1533,-1059.48 1533,-898.28 1533,-833.54"/>
<polygon fill="#c010c0" stroke="#c010c0" points="1536.5,-833.32 1533,-823.32 1529.5,-833.32 1536.5,-833.32"/>
</g>
<!-- UV initRAMArray (988) -->
<g id="node25" class="node">
<title>UV initRAMArray (988)</title>
<ellipse fill="none" stroke="#c010c0" stroke-width="2" cx="1707" cy="-805.21" rx="74.99" ry="18"/>
<text text-anchor="middle" x="1707" y="-801.51" font-family="Times,serif" font-size="14.00">initRAMArray</text>
</g>
<!-- UV StartVM (1069)&#45;&gt;UV initRAMArray (988) -->
<g id="edge11" class="edge">
<title>UV StartVM (1069)&#45;&gt;UV initRAMArray (988)</title>
<path fill="none" stroke="#c010c0" d="M1541.16,-1115.01C1568.64,-1063.84 1658.04,-897.36 1692.9,-832.45"/>
<polygon fill="#c010c0" stroke="#c010c0" points="1696.18,-833.76 1697.82,-823.29 1690.01,-830.45 1696.18,-833.76"/>
</g>
<!-- UV setVar (995) -->
<g id="node27" class="node">
<title>UV setVar (995)</title>
<ellipse fill="none" stroke="#c010c0" stroke-width="2" cx="1112" cy="-480.21" rx="40.09" ry="18"/>
<text text-anchor="middle" x="1112" y="-476.51" font-family="Times,serif" font-size="14.00">setVar</text>
</g>
<!-- UV StartVM (1069)&#45;&gt;UV setVar (995) -->
<g id="edge12" class="edge">
<title>UV StartVM (1069)&#45;&gt;UV setVar (995)</title>
<path fill="none" stroke="#c010c0" d="M1554.53,-1118.6C1645.79,-1068.69 1993.32,-871.11 1935,-787.21 1922.96,-769.89 1316.37,-553.72 1152.46,-495.54"/>
<polygon fill="#c010c0" stroke="#c010c0" points="1153.35,-492.14 1142.75,-492.1 1151.01,-498.74 1153.35,-492.14"/>
</g>
<!-- UV getVar (1002) -->
<g id="node29" class="node">
<title>UV getVar (1002)</title>
<ellipse fill="none" stroke="#c010c0" stroke-width="2" cx="1212" cy="-480.21" rx="41.69" ry="18"/>
<text text-anchor="middle" x="1212" y="-476.51" font-family="Times,serif" font-size="14.00">getVar</text>
</g>
<!-- UV StartVM (1069)&#45;&gt;UV getVar (1002) -->
<g id="edge13" class="edge">
<title>UV StartVM (1069)&#45;&gt;UV getVar (1002)</title>
<path fill="none" stroke="#c010c0" d="M1564.55,-1121.25C1679.55,-1086.98 2063.76,-957.53 1950,-787.21 1908.06,-724.42 1403.54,-547.06 1253.7,-495.45"/>
<polygon fill="#c010c0" stroke="#c010c0" points="1254.54,-492.04 1243.94,-492.1 1252.26,-498.66 1254.54,-492.04"/>
</g>
<!-- UV CallBackErrorCode (2158) -->
<g id="node32" class="node">
<title>UV CallBackErrorCode (2158)</title>
<ellipse fill="none" stroke="#c010c0" stroke-width="2" cx="796" cy="-805.21" rx="100.18" ry="18"/>
<text text-anchor="middle" x="796" y="-801.51" font-family="Times,serif" font-size="14.00">CallBackErrorCode</text>
</g>
<!-- UV StartVM (1069)&#45;&gt;UV CallBackErrorCode (2158) -->
<g id="edge19" class="edge">
<title>UV StartVM (1069)&#45;&gt;UV CallBackErrorCode (2158)</title>
<path fill="none" stroke="#c010c0" d="M1508.48,-1119.43C1402.27,-1072.73 981.03,-887.55 841.3,-826.12"/>
<polygon fill="#c010c0" stroke="#c010c0" points="842.69,-822.91 832.12,-822.09 839.87,-829.31 842.69,-822.91"/>
</g>
<!-- UV Operator (1007) -->
<g id="node33" class="node">
<title>UV Operator (1007)</title>
<ellipse fill="none" stroke="#c010c0" stroke-width="2" cx="1873" cy="-805.21" rx="52.79" ry="18"/>
<text text-anchor="middle" x="1873" y="-801.51" font-family="Times,serif" font-size="14.00">Operator</text>
</g>
<!-- UV StartVM (1069)&#45;&gt;UV Operator (1007) -->
<g id="edge14" class="edge">
<title>UV StartVM (1069)&#45;&gt;UV Operator (1007)</title>
<path fill="none" stroke="#c010c0" d="M1547.18,-1116.7C1599.47,-1066.86 1781.95,-892.97 1848.49,-829.56"/>
<polygon fill="#c010c0" stroke="#c010c0" points="1851.18,-831.83 1856.01,-822.4 1846.36,-826.76 1851.18,-831.83"/>
</g>
<!-- UV ChangeState (2160) -->
<g id="node34" class="node">
<title>UV ChangeState (2160)</title>
<ellipse fill="none" stroke="#c010c0" stroke-width="2" cx="2055" cy="-805.21" rx="70.69" ry="18"/>
<text text-anchor="middle" x="2055" y="-801.51" font-family="Times,serif" font-size="14.00">ChangeState</text>
</g>
<!-- UV StartVM (1069)&#45;&gt;UV ChangeState (2160) -->
<g id="edge20" class="edge">
<title>UV StartVM (1069)&#45;&gt;UV ChangeState (2160)</title>
<path fill="none" stroke="#c010c0" d="M1552.51,-1118.1C1630.57,-1069.64 1921.01,-889.37 2020.96,-827.34"/>
<polygon fill="#c010c0" stroke="#c010c0" points="2022.82,-830.3 2029.47,-822.05 2019.13,-824.35 2022.82,-830.3"/>
</g>
<!-- UV FetchProgram (2163) -->
<g id="node36" class="node">
<title>UV FetchProgram (2163)</title>
<ellipse fill="none" stroke="#c010c0" stroke-width="2" cx="2221" cy="-805.21" rx="77.19" ry="18"/>
<text text-anchor="middle" x="2221" y="-801.51" font-family="Times,serif" font-size="14.00">FetchProgram</text>
</g>
<!-- UV StartVM (1069)&#45;&gt;UV FetchProgram (2163) -->
<g id="edge21" class="edge">
<title>UV StartVM (1069)&#45;&gt;UV FetchProgram (2163)</title>
<path fill="none" stroke="#c010c0" d="M1556.68,-1119.05C1657.19,-1071.72 2049.2,-887.11 2179,-825.98"/>
<polygon fill="#c010c0" stroke="#c010c0" points="2180.69,-829.06 2188.24,-821.63 2177.7,-822.73 2180.69,-829.06"/>
</g>
<!-- UV Keyword (1011) -->
<g id="node37" class="node">
<title>UV Keyword (1011)</title>
<ellipse fill="none" stroke="#c010c0" stroke-width="2" cx="2368" cy="-805.21" rx="51.19" ry="18"/>
<text text-anchor="middle" x="2368" y="-801.51" font-family="Times,serif" font-size="14.00">Keyword</text>
</g>
<!-- UV StartVM (1069)&#45;&gt;UV Keyword (1011) -->
<g id="edge15" class="edge">
<title>UV StartVM (1069)&#45;&gt;UV Keyword (1011)</title>
<path fill="none" stroke="#c010c0" d="M1559.84,-1119.79C1680.72,-1072.89 2175.26,-880.99 2324.9,-822.93"/>
<polygon fill="#c010c0" stroke="#c010c0" points="2326.6,-826.02 2334.66,-819.14 2324.07,-819.5 2326.6,-826.02"/>
</g>
<!-- UV DebugEnable (1015) -->
<g id="node39" class="node">
<title>UV DebugEnable (1015)</title>
<ellipse fill="none" stroke="#c010c0" stroke-width="2" cx="2511" cy="-805.21" rx="73.39" ry="18"/>
<text text-anchor="middle" x="2511" y="-801.51" font-family="Times,serif" font-size="14.00">DebugEnable</text>
</g>
<!-- UV StartVM (1069)&#45;&gt;UV DebugEnable (1015) -->
<g id="edge16" class="edge">
<title>UV StartVM (1069)&#45;&gt;UV DebugEnable (1015)</title>
<path fill="none" stroke="#c010c0" d="M1562,-1120.6C1698.99,-1075.22 2281.9,-882.1 2459.46,-823.28"/>
<polygon fill="#c010c0" stroke="#c010c0" points="2460.7,-826.56 2469.09,-820.09 2458.5,-819.91 2460.7,-826.56"/>
</g>
<!-- UV GetString (957) -->
<g id="node11" class="node">
<title>UV GetString (957)</title>
<ellipse fill="none" stroke="#c010c0" stroke-width="2" cx="2672" cy="-480.21" rx="56.59" ry="18"/>
<text text-anchor="middle" x="2672" y="-476.51" font-family="Times,serif" font-size="14.00">GetString</text>
</g>
<!-- UV main (5457) -->
<g id="node16" class="node">
<title>UV main (5457)</title>
<polygon fill="none" stroke="#2050a8" stroke-width="2" points="945,-1525.21 897.41,-1507.21 945,-1489.21 992.59,-1507.21 945,-1525.21"/>
<text text-anchor="middle" x="945" y="-1503.51" font-family="Times,serif" font-size="14.00">main</text>
</g>
<!-- UV main (5457)&#45;&gt;UV initHardware (1053) -->
<g id="edge22" class="edge">
<title>UV main (5457)&#45;&gt;UV initHardware (1053)</title>
<path fill="none" stroke="#2050a8" d="M924.17,-1496.77C813.86,-1446.83 297.64,-1213.09 155.38,-1148.68"/>
<polygon fill="#2050a8" stroke="#2050a8" points="156.73,-1145.45 146.18,-1144.51 153.84,-1151.82 156.73,-1145.45"/>
</g>
<!-- UV main (5457)&#45;&gt;UV initFileSystem (1056) -->
<g id="edge23" class="edge">
<title>UV main (5457)&#45;&gt;UV initFileSystem (1056)</title>
<path fill="none" stroke="#2050a8" d="M928.04,-1495.42C846.34,-1443.45 493.07,-1218.75 387.14,-1151.37"/>
<polygon fill="#2050a8" stroke="#2050a8" points="388.83,-1148.31 378.52,-1145.89 385.08,-1154.21 388.83,-1148.31"/>
</g>
<!-- UV main (5457)&#45;&gt;UV StartVM (1069) -->
<g id="edge24" class="edge">
<title>UV main (5457)&#45;&gt;UV StartVM (1069)</title>
<path fill="none" stroke="#2050a8" d="M961.96,-1495.42C1044.22,-1443.1 1401.76,-1215.68 1505,-1150.02"/>
<polygon fill="#2050a8" stroke="#2050a8" points="1507.08,-1152.84 1513.63,-1144.52 1503.32,-1146.94 1507.08,-1152.84"/>
</g>
<!-- UV malloc (5462) -->
<g id="node21" class="node">
<title>UV malloc (5462)</title>
<polygon fill="none" stroke="#a0d028" stroke-dasharray="1,5" points="2910,-1149.21 2852.19,-1131.21 2910,-1113.21 2967.81,-1131.21 2910,-1149.21"/>
<text text-anchor="middle" x="2910" y="-1127.51" font-family="Times,serif" font-size="14.00">malloc</text>
</g>
<!-- UV main (5457)&#45;&gt;UV malloc (5462) -->
<g id="edge25" class="edge">
<title>UV main (5457)&#45;&gt;UV malloc (5462)</title>
<path fill="none" stroke="#2050a8" d="M988.17,-1505.52C1199.28,-1500.8 2140.98,-1464.05 2840,-1180.21 2857.25,-1173.2 2874.52,-1161.42 2887.59,-1151.28"/>
<polygon fill="#2050a8" stroke="#2050a8" points="2889.91,-1153.91 2895.53,-1144.93 2885.54,-1148.44 2889.91,-1153.91"/>
</g>
<!-- UV usleep (3282) -->
<g id="node17" class="node">
<title>UV usleep (3282)</title>
<ellipse fill="none" stroke="#c010c0" stroke-dasharray="1,5" cx="2787" cy="-480.21" rx="40.89" ry="18"/>
<text text-anchor="middle" x="2787" y="-476.51" font-family="Times,serif" font-size="14.00">usleep</text>
</g>
<!-- UV sprintf_va_1 (9172) -->
<g id="node19" class="node">
<title>UV sprintf_va_1 (9172)</title>
<ellipse fill="none" stroke="#c010c0" stroke-dasharray="1,5" cx="1618" cy="-480.21" rx="67.69" ry="18"/>
<text text-anchor="middle" x="1618" y="-476.51" font-family="Times,serif" font-size="14.00">sprintf_va_1</text>
</g>
<!-- UV abs (3285) -->
<g id="node20" class="node">
<title>UV abs (3285)</title>
<ellipse fill="none" stroke="#c010c0" stroke-dasharray="1,5" cx="1731" cy="-480.21" rx="27" ry="18"/>
<text text-anchor="middle" x="1731" y="-476.51" font-family="Times,serif" font-size="14.00">abs</text>
</g>
<!-- UV sprintf_va_2 (9176) -->
<g id="node23" class="node">
<title>UV sprintf_va_2 (9176)</title>
<ellipse fill="none" stroke="#c010c0" stroke-dasharray="1,5" cx="1844" cy="-480.21" rx="67.69" ry="18"/>
<text text-anchor="middle" x="1844" y="-476.51" font-family="Times,serif" font-size="14.00">sprintf_va_2</text>
</g>
<!-- UV sprintf_va_3 (9180) -->
<g id="node24" class="node">
<title>UV sprintf_va_3 (9180)</title>
<ellipse fill="none" stroke="#c010c0" stroke-dasharray="1,5" cx="1997" cy="-480.21" rx="67.69" ry="18"/>
<text text-anchor="middle" x="1997" y="-476.51" font-family="Times,serif" font-size="14.00">sprintf_va_3</text>
</g>
<!-- UV sprintf_va_4 (9186) -->
<g id="node26" class="node">
<title>UV sprintf_va_4 (9186)</title>
<ellipse fill="none" stroke="#c010c0" stroke-dasharray="1,5" cx="2150" cy="-480.21" rx="67.69" ry="18"/>
<text text-anchor="middle" x="2150" y="-476.51" font-family="Times,serif" font-size="14.00">sprintf_va_4</text>
</g>
<!-- UV sprintf_va_5 (9191) -->
<g id="node28" class="node">
<title>UV sprintf_va_5 (9191)</title>
<ellipse fill="none" stroke="#c010c0" stroke-dasharray="1,5" cx="2303" cy="-480.21" rx="67.69" ry="18"/>
<text text-anchor="middle" x="2303" y="-476.51" font-family="Times,serif" font-size="14.00">sprintf_va_5</text>
</g>
<!-- UV printf_va_3 (9201) -->
<g id="node35" class="node">
<title>UV printf_va_3 (9201)</title>
<ellipse fill="none" stroke="#c010c0" stroke-dasharray="1,5" cx="554" cy="-480.21" rx="62.29" ry="18"/>
<text text-anchor="middle" x="554" y="-476.51" font-family="Times,serif" font-size="14.00">printf_va_3</text>
</g>
<!-- UV CallBackErrorCode (2158)&#45;&gt;UV printf_va_3 (9201) -->
<g id="edge26" class="edge">
<title>UV CallBackErrorCode (2158)&#45;&gt;UV printf_va_3 (9201)</title>
<path fill="none" stroke="#c010c0" d="M783.33,-787.29C743.39,-733.99 619.97,-569.26 572.69,-506.16"/>
<polygon fill="#c010c0" stroke="#c010c0" points="575.34,-503.85 566.54,-497.95 569.74,-508.05 575.34,-503.85"/>
</g>
<!-- UV Operator (1007)&#45;&gt;UV Push (971) -->
<g id="edge27" class="edge">
<title>UV Operator (1007)&#45;&gt;UV Push (971)</title>
<path fill="none" stroke="#c010c0" d="M1836.17,-792.09C1714.6,-751.97 1315.28,-619.11 989,-498.21 986.63,-497.33 984.19,-496.41 981.74,-495.47"/>
<polygon fill="#c010c0" stroke="#c010c0" points="982.9,-492.17 972.31,-491.81 980.37,-498.69 982.9,-492.17"/>
</g>
<!-- UV Operator (1007)&#45;&gt;UV Pop (975) -->
<g id="edge28" class="edge">
<title>UV Operator (1007)&#45;&gt;UV Pop (975)</title>
<path fill="none" stroke="#c010c0" d="M1837.52,-791.8C1723.84,-751.83 1358.77,-621.84 1063,-498.21 1061.14,-497.43 1059.24,-496.61 1057.32,-495.78"/>
<polygon fill="#c010c0" stroke="#c010c0" points="1058.36,-492.41 1047.8,-491.53 1055.5,-498.8 1058.36,-492.41"/>
</g>
<!-- UV Operator (1007)&#45;&gt;UV Top (979) -->
<g id="edge29" class="edge">
<title>UV Operator (1007)&#45;&gt;UV Top (979)</title>
<path fill="none" stroke="#c010c0" d="M1832.6,-793.58C1698.34,-757.83 1255.67,-636.37 903,-498.21 901.17,-497.49 899.29,-496.72 897.42,-495.92"/>
<polygon fill="#c010c0" stroke="#c010c0" points="898.67,-492.64 888.11,-491.76 895.81,-499.03 898.67,-492.64"/>
</g>
<!-- UV Operator (1007)&#45;&gt;UV setVar (995) -->
<g id="edge30" class="edge">
<title>UV Operator (1007)&#45;&gt;UV setVar (995)</title>
<path fill="none" stroke="#c010c0" d="M1841.27,-790.74C1719.28,-738.96 1280.79,-552.85 1149.44,-497.1"/>
<polygon fill="#c010c0" stroke="#c010c0" points="1150.74,-493.84 1140.16,-493.16 1148,-500.29 1150.74,-493.84"/>
</g>
<!-- UV Operator (1007)&#45;&gt;UV getVar (1002) -->
<g id="edge31" class="edge">
<title>UV Operator (1007)&#45;&gt;UV getVar (1002)</title>
<path fill="none" stroke="#c010c0" d="M1844.17,-790.12C1737.47,-737.98 1365.05,-555.99 1247.7,-498.65"/>
<polygon fill="#c010c0" stroke="#c010c0" points="1248.94,-495.36 1238.42,-494.11 1245.87,-501.65 1248.94,-495.36"/>
</g>
<!-- UV FetchProgram (2163)&#45;&gt;UV CallBackGetProgramByte (1033) -->
<g id="edge32" class="edge">
<title>UV FetchProgram (2163)&#45;&gt;UV CallBackGetProgramByte (1033)</title>
<path fill="none" stroke="#c010c0" d="M2183.41,-789.38C2050.62,-737.01 1603.47,-560.66 1452.37,-501.07"/>
<polygon fill="#c010c0" stroke="#c010c0" points="1453.44,-497.73 1442.85,-497.32 1450.87,-504.24 1453.44,-497.73"/>
</g>
<!-- UV Keyword (1011)&#45;&gt;UV CallBackConsoleOut (1038) -->
<g id="edge39" class="edge">
<title>UV Keyword (1011)&#45;&gt;UV CallBackConsoleOut (1038)</title>
<path fill="none" stroke="#c010c0" d="M2374.54,-787.29C2395,-734.44 2457.85,-572.04 2482.72,-507.78"/>
<polygon fill="#c010c0" stroke="#c010c0" points="2486.02,-508.93 2486.37,-498.34 2479.5,-506.4 2486.02,-508.93"/>
</g>
<!-- UV Keyword (1011)&#45;&gt;UV CallBackErrorOut (1042) -->
<g id="edge40" class="edge">
<title>UV Keyword (1011)&#45;&gt;UV CallBackErrorOut (1042)</title>
<path fill="none" stroke="#c010c0" d="M2329.72,-793.03C2322.22,-790.98 2314.38,-788.95 2307,-787.21 1735.93,-652.52 1038.53,-532.78 806.92,-494.19"/>
<polygon fill="#c010c0" stroke="#c010c0" points="807.34,-490.71 796.91,-492.52 806.2,-497.61 807.34,-490.71"/>
</g>
<!-- UV Keyword (1011)&#45;&gt;UV GetString (957) -->
<g id="edge33" class="edge">
<title>UV Keyword (1011)&#45;&gt;UV GetString (957)</title>
<path fill="none" stroke="#c010c0" d="M2383.49,-787.74C2433.5,-734.61 2590.79,-567.5 2649.55,-505.05"/>
<polygon fill="#c010c0" stroke="#c010c0" points="2652.23,-507.31 2656.54,-497.63 2647.14,-502.52 2652.23,-507.31"/>
</g>
<!-- UV Keyword (1011)&#45;&gt;UV Push (971) -->
<g id="edge34" class="edge">
<title>UV Keyword (1011)&#45;&gt;UV Push (971)</title>
<path fill="none" stroke="#c010c0" d="M2329.69,-793.18C2322.19,-791.12 2314.36,-789.04 2307,-787.21 1725.04,-642.43 1562.58,-673.23 989,-498.21 986.43,-497.42 983.79,-496.55 981.15,-495.63"/>
<polygon fill="#c010c0" stroke="#c010c0" points="982.28,-492.31 971.68,-492.14 979.85,-498.88 982.28,-492.31"/>
</g>
<!-- UV Keyword (1011)&#45;&gt;UV Pop (975) -->
<g id="edge35" class="edge">
<title>UV Keyword (1011)&#45;&gt;UV Pop (975)</title>
<path fill="none" stroke="#c010c0" d="M2329.34,-793.16C2321.94,-791.12 2314.24,-789.05 2307,-787.21 1757.04,-646.76 1600.08,-681.86 1063,-498.21 1061.09,-497.55 1059.15,-496.84 1057.21,-496.08"/>
<polygon fill="#c010c0" stroke="#c010c0" points="1058.19,-492.69 1047.61,-492.02 1055.46,-499.14 1058.19,-492.69"/>
</g>
<!-- UV Keyword (1011)&#45;&gt;UV usleep (3282) -->
<g id="edge41" class="edge">
<title>UV Keyword (1011)&#45;&gt;UV usleep (3282)</title>
<path fill="none" stroke="#c010c0" d="M2388.21,-788.63C2456.82,-735.74 2680.92,-562.98 2759.49,-502.42"/>
<polygon fill="#c010c0" stroke="#c010c0" points="2761.7,-505.13 2767.48,-496.25 2757.42,-499.59 2761.7,-505.13"/>
</g>
<!-- UV Keyword (1011)&#45;&gt;UV Top (979) -->
<g id="edge36" class="edge">
<title>UV Keyword (1011)&#45;&gt;UV Top (979)</title>
<path fill="none" stroke="#c010c0" d="M2329.71,-793.1C2322.2,-791.05 2314.37,-788.99 2307,-787.21 1687.79,-637.38 1507.32,-699.87 903,-498.21 901.13,-497.58 899.23,-496.89 897.33,-496.14"/>
<polygon fill="#c010c0" stroke="#c010c0" points="898.55,-492.85 887.97,-492.13 895.79,-499.29 898.55,-492.85"/>
</g>
<!-- UV Keyword (1011)&#45;&gt;UV sprintf_va_1 (9172) -->
<g id="edge43" class="edge">
<title>UV Keyword (1011)&#45;&gt;UV sprintf_va_1 (9172)</title>
<path fill="none" stroke="#c010c0" d="M2336.73,-790.74C2218.42,-739.78 1798,-558.73 1661.29,-499.85"/>
<polygon fill="#c010c0" stroke="#c010c0" points="1662.52,-496.57 1651.95,-495.83 1659.75,-503 1662.52,-496.57"/>
</g>
<!-- UV Keyword (1011)&#45;&gt;UV abs (3285) -->
<g id="edge42" class="edge">
<title>UV Keyword (1011)&#45;&gt;UV abs (3285)</title>
<path fill="none" stroke="#c010c0" d="M2339.81,-789.91C2234.98,-736.76 1868.24,-550.79 1760.79,-496.31"/>
<polygon fill="#c010c0" stroke="#c010c0" points="1762.29,-493.15 1751.79,-491.75 1759.12,-499.39 1762.29,-493.15"/>
</g>
<!-- UV Keyword (1011)&#45;&gt;UV sprintf_va_2 (9176) -->
<g id="edge44" class="edge">
<title>UV Keyword (1011)&#45;&gt;UV sprintf_va_2 (9176)</title>
<path fill="none" stroke="#c010c0" d="M2343.78,-789.27C2259.16,-737.12 1976.58,-562.93 1878.16,-502.26"/>
<polygon fill="#c010c0" stroke="#c010c0" points="1879.84,-499.18 1869.49,-496.92 1876.17,-505.14 1879.84,-499.18"/>
</g>
<!-- UV Keyword (1011)&#45;&gt;UV sprintf_va_3 (9180) -->
<g id="edge45" class="edge">
<title>UV Keyword (1011)&#45;&gt;UV sprintf_va_3 (9180)</title>
<path fill="none" stroke="#c010c0" d="M2349.6,-788.19C2288.92,-735.36 2094.95,-566.48 2023.64,-504.39"/>
<polygon fill="#c010c0" stroke="#c010c0" points="2025.79,-501.63 2015.95,-497.7 2021.2,-506.91 2025.79,-501.63"/>
</g>
<!-- UV Keyword (1011)&#45;&gt;UV sprintf_va_4 (9186) -->
<g id="edge46" class="edge">
<title>UV Keyword (1011)&#45;&gt;UV sprintf_va_4 (9186)</title>
<path fill="none" stroke="#c010c0" d="M2356.59,-787.29C2320.76,-734.22 2210.4,-570.7 2167.4,-506.99"/>
<polygon fill="#c010c0" stroke="#c010c0" points="2170.06,-504.67 2161.56,-498.34 2164.26,-508.59 2170.06,-504.67"/>
</g>
<!-- UV Keyword (1011)&#45;&gt;UV setVar (995) -->
<g id="edge37" class="edge">
<title>UV Keyword (1011)&#45;&gt;UV setVar (995)</title>
<path fill="none" stroke="#c010c0" d="M2329.32,-793.27C2321.92,-791.22 2314.23,-789.12 2307,-787.21 1799.3,-652.46 1664.27,-648.66 1161,-498.21 1158.03,-497.32 1154.98,-496.36 1151.91,-495.37"/>
<polygon fill="#c010c0" stroke="#c010c0" points="1152.78,-491.97 1142.19,-492.14 1150.57,-498.62 1152.78,-491.97"/>
</g>
<!-- UV Keyword (1011)&#45;&gt;UV sprintf_va_5 (9191) -->
<g id="edge47" class="edge">
<title>UV Keyword (1011)&#45;&gt;UV sprintf_va_5 (9191)</title>
<path fill="none" stroke="#c010c0" d="M2364.51,-786.84C2353.81,-733.7 2321.47,-572.99 2308.48,-508.46"/>
<polygon fill="#c010c0" stroke="#c010c0" points="2311.84,-507.38 2306.43,-498.26 2304.97,-508.76 2311.84,-507.38"/>
</g>
<!-- UV Keyword (1011)&#45;&gt;UV getVar (1002) -->
<g id="edge38" class="edge">
<title>UV Keyword (1011)&#45;&gt;UV getVar (1002)</title>
<path fill="none" stroke="#c010c0" d="M2328.95,-793.31C2321.66,-791.28 2314.1,-789.18 2307,-787.21 1843.11,-658.36 1723.53,-638.6 1263,-498.21 1259.83,-497.24 1256.56,-496.21 1253.28,-495.16"/>
<polygon fill="#c010c0" stroke="#c010c0" points="1254.07,-491.74 1243.48,-491.98 1251.91,-498.4 1254.07,-491.74"/>
</g>
</g>
</svg>
